<mxfile host="Electron" modified="2023-12-01T12:01:36.919Z" agent="Mozilla/5.0 (Windows NT 10.0; Win64; x64) AppleWebKit/537.36 (KHTML, like Gecko) draw.io/22.1.2 Chrome/114.0.5735.289 Electron/25.9.4 Safari/537.36" etag="dgRO0YVozCn58faVuqGz" version="22.1.2" type="device">
  <diagram id="C5RBs43oDa-KdzZeNtuy" name="Page-1">
    <mxGraphModel dx="3317" dy="1595" grid="1" gridSize="10" guides="1" tooltips="1" connect="1" arrows="1" fold="1" page="1" pageScale="1" pageWidth="827" pageHeight="1169" math="0" shadow="0">
      <root>
        <mxCell id="WIyWlLk6GJQsqaUBKTNV-0" />
        <mxCell id="WIyWlLk6GJQsqaUBKTNV-1" parent="WIyWlLk6GJQsqaUBKTNV-0" />
        <mxCell id="Jgumxjj7cZuFLw9JBGDY-2" value="" style="edgeStyle=orthogonalEdgeStyle;rounded=0;orthogonalLoop=1;jettySize=auto;html=1;fontSize=20;" edge="1" parent="WIyWlLk6GJQsqaUBKTNV-1" source="Jgumxjj7cZuFLw9JBGDY-0" target="Jgumxjj7cZuFLw9JBGDY-1">
          <mxGeometry relative="1" as="geometry" />
        </mxCell>
        <mxCell id="Jgumxjj7cZuFLw9JBGDY-0" value="Start" style="strokeWidth=2;html=1;shape=mxgraph.flowchart.start_1;whiteSpace=wrap;fontSize=20;" vertex="1" parent="WIyWlLk6GJQsqaUBKTNV-1">
          <mxGeometry x="-548.75" y="19" width="152.5" height="80" as="geometry" />
        </mxCell>
        <mxCell id="Jgumxjj7cZuFLw9JBGDY-4" value="" style="edgeStyle=orthogonalEdgeStyle;rounded=0;orthogonalLoop=1;jettySize=auto;html=1;fontSize=20;" edge="1" parent="WIyWlLk6GJQsqaUBKTNV-1" source="Jgumxjj7cZuFLw9JBGDY-1" target="Jgumxjj7cZuFLw9JBGDY-3">
          <mxGeometry relative="1" as="geometry" />
        </mxCell>
        <mxCell id="Jgumxjj7cZuFLw9JBGDY-1" value="initialize:&lt;br style=&quot;font-size: 20px;&quot;&gt;int n, m;&lt;br style=&quot;font-size: 20px;&quot;&gt;vector&amp;lt;int&amp;gt; array1, array2&amp;nbsp;" style="shape=parallelogram;html=1;strokeWidth=2;perimeter=parallelogramPerimeter;whiteSpace=wrap;rounded=1;arcSize=12;size=0.23;fontSize=20;" vertex="1" parent="WIyWlLk6GJQsqaUBKTNV-1">
          <mxGeometry x="-622.5" y="139" width="300" height="110" as="geometry" />
        </mxCell>
        <mxCell id="Jgumxjj7cZuFLw9JBGDY-6" value="" style="edgeStyle=orthogonalEdgeStyle;rounded=0;orthogonalLoop=1;jettySize=auto;html=1;fontSize=20;" edge="1" parent="WIyWlLk6GJQsqaUBKTNV-1" source="Jgumxjj7cZuFLw9JBGDY-3" target="Jgumxjj7cZuFLw9JBGDY-5">
          <mxGeometry relative="1" as="geometry" />
        </mxCell>
        <mxCell id="Jgumxjj7cZuFLw9JBGDY-3" value="customSort(array1, n)&#xa;customSort(array2, m)" style="verticalLabelPosition=middle;verticalAlign=middle;html=1;shape=process;whiteSpace=wrap;rounded=1;size=0.14;arcSize=6;labelPosition=center;align=center;fontSize=20;" vertex="1" parent="WIyWlLk6GJQsqaUBKTNV-1">
          <mxGeometry x="-617.5" y="289" width="290" height="100" as="geometry" />
        </mxCell>
        <mxCell id="Jgumxjj7cZuFLw9JBGDY-19" value="" style="edgeStyle=orthogonalEdgeStyle;rounded=0;orthogonalLoop=1;jettySize=auto;html=1;fontSize=20;" edge="1" parent="WIyWlLk6GJQsqaUBKTNV-1" source="Jgumxjj7cZuFLw9JBGDY-5" target="Jgumxjj7cZuFLw9JBGDY-15">
          <mxGeometry relative="1" as="geometry" />
        </mxCell>
        <mxCell id="Jgumxjj7cZuFLw9JBGDY-5" value="&lt;div style=&quot;font-size: 20px;&quot;&gt;int common = 0;&lt;br style=&quot;font-size: 20px;&quot;&gt;&lt;br style=&quot;font-size: 20px;&quot;&gt;&lt;/div&gt;&lt;div style=&quot;font-size: 20px;&quot;&gt;int i = 0, j = 0;&lt;/div&gt;" style="rounded=1;whiteSpace=wrap;html=1;absoluteArcSize=1;arcSize=14;strokeWidth=2;fontSize=20;" vertex="1" parent="WIyWlLk6GJQsqaUBKTNV-1">
          <mxGeometry x="-617.5" y="419" width="290" height="80" as="geometry" />
        </mxCell>
        <mxCell id="Jgumxjj7cZuFLw9JBGDY-21" value="" style="edgeStyle=orthogonalEdgeStyle;rounded=0;orthogonalLoop=1;jettySize=auto;html=1;fontSize=20;" edge="1" parent="WIyWlLk6GJQsqaUBKTNV-1" source="Jgumxjj7cZuFLw9JBGDY-15" target="Jgumxjj7cZuFLw9JBGDY-20">
          <mxGeometry relative="1" as="geometry" />
        </mxCell>
        <mxCell id="Jgumxjj7cZuFLw9JBGDY-40" style="edgeStyle=orthogonalEdgeStyle;rounded=0;orthogonalLoop=1;jettySize=auto;html=1;exitX=0;exitY=0.5;exitDx=0;exitDy=0;exitPerimeter=0;entryX=0.5;entryY=0;entryDx=0;entryDy=0;fontSize=20;" edge="1" parent="WIyWlLk6GJQsqaUBKTNV-1" source="Jgumxjj7cZuFLw9JBGDY-15" target="Jgumxjj7cZuFLw9JBGDY-36">
          <mxGeometry relative="1" as="geometry">
            <Array as="points">
              <mxPoint x="-720" y="619" />
              <mxPoint x="-720" y="1149" />
              <mxPoint x="-473" y="1149" />
            </Array>
          </mxGeometry>
        </mxCell>
        <mxCell id="Jgumxjj7cZuFLw9JBGDY-15" value="i &amp;lt; n &amp;amp;&amp;amp; j &amp;lt; m" style="strokeWidth=2;html=1;shape=mxgraph.flowchart.decision;whiteSpace=wrap;fontSize=20;" vertex="1" parent="WIyWlLk6GJQsqaUBKTNV-1">
          <mxGeometry x="-590.5" y="549" width="235" height="140" as="geometry" />
        </mxCell>
        <mxCell id="Jgumxjj7cZuFLw9JBGDY-24" value="True" style="edgeStyle=orthogonalEdgeStyle;rounded=0;orthogonalLoop=1;jettySize=auto;html=1;exitX=0;exitY=0.5;exitDx=0;exitDy=0;exitPerimeter=0;entryX=0.5;entryY=0;entryDx=0;entryDy=0;fontSize=20;" edge="1" parent="WIyWlLk6GJQsqaUBKTNV-1" source="Jgumxjj7cZuFLw9JBGDY-20" target="Jgumxjj7cZuFLw9JBGDY-22">
          <mxGeometry relative="1" as="geometry" />
        </mxCell>
        <mxCell id="Jgumxjj7cZuFLw9JBGDY-20" value="array1[i] == array2[j]" style="strokeWidth=2;html=1;shape=mxgraph.flowchart.decision;whiteSpace=wrap;fontSize=20;" vertex="1" parent="WIyWlLk6GJQsqaUBKTNV-1">
          <mxGeometry x="-577.75" y="729" width="210.5" height="117" as="geometry" />
        </mxCell>
        <mxCell id="Jgumxjj7cZuFLw9JBGDY-22" value="&lt;div style=&quot;font-size: 20px;&quot;&gt;++common;&lt;/div&gt;&lt;div style=&quot;font-size: 20px;&quot;&gt;++i;&lt;/div&gt;&lt;div style=&quot;font-size: 20px;&quot;&gt;++j;&lt;/div&gt;" style="rounded=1;whiteSpace=wrap;html=1;absoluteArcSize=1;arcSize=14;strokeWidth=2;fontSize=20;" vertex="1" parent="WIyWlLk6GJQsqaUBKTNV-1">
          <mxGeometry x="-653" y="846" width="100" height="100" as="geometry" />
        </mxCell>
        <mxCell id="Jgumxjj7cZuFLw9JBGDY-25" value="True" style="edgeStyle=orthogonalEdgeStyle;rounded=0;orthogonalLoop=1;jettySize=auto;html=1;exitX=0;exitY=0.5;exitDx=0;exitDy=0;exitPerimeter=0;entryX=0.5;entryY=0;entryDx=0;entryDy=0;fontSize=20;" edge="1" parent="WIyWlLk6GJQsqaUBKTNV-1" source="Jgumxjj7cZuFLw9JBGDY-26" target="Jgumxjj7cZuFLw9JBGDY-27">
          <mxGeometry x="-0.0909" relative="1" as="geometry">
            <mxPoint y="-1" as="offset" />
          </mxGeometry>
        </mxCell>
        <mxCell id="Jgumxjj7cZuFLw9JBGDY-32" value="False" style="edgeStyle=orthogonalEdgeStyle;rounded=0;orthogonalLoop=1;jettySize=auto;html=1;exitX=1;exitY=0.5;exitDx=0;exitDy=0;exitPerimeter=0;entryX=0.5;entryY=0;entryDx=0;entryDy=0;fontSize=20;" edge="1" parent="WIyWlLk6GJQsqaUBKTNV-1" source="Jgumxjj7cZuFLw9JBGDY-26" target="Jgumxjj7cZuFLw9JBGDY-31">
          <mxGeometry x="-0.3333" relative="1" as="geometry">
            <mxPoint y="-1" as="offset" />
          </mxGeometry>
        </mxCell>
        <mxCell id="Jgumxjj7cZuFLw9JBGDY-26" value="array1[i] &amp;lt; array2[j]" style="strokeWidth=2;html=1;shape=mxgraph.flowchart.decision;whiteSpace=wrap;fontSize=20;" vertex="1" parent="WIyWlLk6GJQsqaUBKTNV-1">
          <mxGeometry x="-420" y="839" width="190" height="127" as="geometry" />
        </mxCell>
        <mxCell id="Jgumxjj7cZuFLw9JBGDY-27" value="&lt;div style=&quot;font-size: 20px;&quot;&gt;&lt;span style=&quot;background-color: initial; font-size: 20px;&quot;&gt;++i;&lt;/span&gt;&lt;br style=&quot;font-size: 20px;&quot;&gt;&lt;/div&gt;" style="rounded=1;whiteSpace=wrap;html=1;absoluteArcSize=1;arcSize=14;strokeWidth=2;fontSize=20;" vertex="1" parent="WIyWlLk6GJQsqaUBKTNV-1">
          <mxGeometry x="-470" y="966" width="60" height="60" as="geometry" />
        </mxCell>
        <mxCell id="Jgumxjj7cZuFLw9JBGDY-28" value="False" style="edgeStyle=orthogonalEdgeStyle;rounded=0;orthogonalLoop=1;jettySize=auto;html=1;exitX=1;exitY=0.5;exitDx=0;exitDy=0;exitPerimeter=0;entryX=0.5;entryY=0;entryDx=0;entryDy=0;entryPerimeter=0;fontSize=20;" edge="1" parent="WIyWlLk6GJQsqaUBKTNV-1" source="Jgumxjj7cZuFLw9JBGDY-20" target="Jgumxjj7cZuFLw9JBGDY-26">
          <mxGeometry relative="1" as="geometry" />
        </mxCell>
        <mxCell id="Jgumxjj7cZuFLw9JBGDY-31" value="&lt;div style=&quot;font-size: 20px;&quot;&gt;&lt;span style=&quot;background-color: initial; font-size: 20px;&quot;&gt;++j;&lt;/span&gt;&lt;br style=&quot;font-size: 20px;&quot;&gt;&lt;/div&gt;" style="rounded=1;whiteSpace=wrap;html=1;absoluteArcSize=1;arcSize=14;strokeWidth=2;fontSize=20;" vertex="1" parent="WIyWlLk6GJQsqaUBKTNV-1">
          <mxGeometry x="-230" y="966" width="60" height="60" as="geometry" />
        </mxCell>
        <mxCell id="Jgumxjj7cZuFLw9JBGDY-33" style="edgeStyle=orthogonalEdgeStyle;rounded=0;orthogonalLoop=1;jettySize=auto;html=1;entryX=1;entryY=0.5;entryDx=0;entryDy=0;entryPerimeter=0;fontSize=20;" edge="1" parent="WIyWlLk6GJQsqaUBKTNV-1" source="Jgumxjj7cZuFLw9JBGDY-22" target="Jgumxjj7cZuFLw9JBGDY-15">
          <mxGeometry relative="1" as="geometry">
            <Array as="points">
              <mxPoint x="-603" y="1089" />
              <mxPoint x="-110" y="1089" />
              <mxPoint x="-110" y="619" />
            </Array>
          </mxGeometry>
        </mxCell>
        <mxCell id="Jgumxjj7cZuFLw9JBGDY-34" style="edgeStyle=orthogonalEdgeStyle;rounded=0;orthogonalLoop=1;jettySize=auto;html=1;exitX=0.5;exitY=1;exitDx=0;exitDy=0;entryX=1;entryY=0.5;entryDx=0;entryDy=0;entryPerimeter=0;fontSize=20;" edge="1" parent="WIyWlLk6GJQsqaUBKTNV-1" source="Jgumxjj7cZuFLw9JBGDY-27" target="Jgumxjj7cZuFLw9JBGDY-15">
          <mxGeometry relative="1" as="geometry">
            <Array as="points">
              <mxPoint x="-440" y="1069" />
              <mxPoint x="-110" y="1069" />
              <mxPoint x="-110" y="619" />
            </Array>
          </mxGeometry>
        </mxCell>
        <mxCell id="Jgumxjj7cZuFLw9JBGDY-35" style="edgeStyle=orthogonalEdgeStyle;rounded=0;orthogonalLoop=1;jettySize=auto;html=1;exitX=0.5;exitY=1;exitDx=0;exitDy=0;fontSize=20;" edge="1" parent="WIyWlLk6GJQsqaUBKTNV-1" source="Jgumxjj7cZuFLw9JBGDY-31">
          <mxGeometry relative="1" as="geometry">
            <mxPoint x="-473" y="519" as="targetPoint" />
            <Array as="points">
              <mxPoint x="-200" y="1049" />
              <mxPoint x="-110" y="1049" />
              <mxPoint x="-110" y="519" />
            </Array>
          </mxGeometry>
        </mxCell>
        <mxCell id="Jgumxjj7cZuFLw9JBGDY-42" value="" style="edgeStyle=orthogonalEdgeStyle;rounded=0;orthogonalLoop=1;jettySize=auto;html=1;fontSize=20;" edge="1" parent="WIyWlLk6GJQsqaUBKTNV-1" source="Jgumxjj7cZuFLw9JBGDY-36" target="Jgumxjj7cZuFLw9JBGDY-39">
          <mxGeometry relative="1" as="geometry" />
        </mxCell>
        <mxCell id="Jgumxjj7cZuFLw9JBGDY-36" value="int unique = n+m-common;" style="rounded=1;whiteSpace=wrap;html=1;absoluteArcSize=1;arcSize=14;strokeWidth=2;fontSize=20;" vertex="1" parent="WIyWlLk6GJQsqaUBKTNV-1">
          <mxGeometry x="-617.5" y="1188" width="290" height="100" as="geometry" />
        </mxCell>
        <mxCell id="Jgumxjj7cZuFLw9JBGDY-47" value="" style="edgeStyle=orthogonalEdgeStyle;rounded=0;orthogonalLoop=1;jettySize=auto;html=1;fontSize=20;" edge="1" parent="WIyWlLk6GJQsqaUBKTNV-1" source="Jgumxjj7cZuFLw9JBGDY-39" target="Jgumxjj7cZuFLw9JBGDY-46">
          <mxGeometry relative="1" as="geometry" />
        </mxCell>
        <mxCell id="Jgumxjj7cZuFLw9JBGDY-39" value="Output:&lt;br style=&quot;font-size: 20px;&quot;&gt;common,&amp;nbsp;&amp;nbsp;unique" style="shape=parallelogram;html=1;strokeWidth=2;perimeter=parallelogramPerimeter;whiteSpace=wrap;rounded=1;arcSize=12;size=0.23;fontSize=20;" vertex="1" parent="WIyWlLk6GJQsqaUBKTNV-1">
          <mxGeometry x="-613" y="1329" width="280" height="120" as="geometry" />
        </mxCell>
        <mxCell id="Jgumxjj7cZuFLw9JBGDY-46" value="End" style="strokeWidth=2;html=1;shape=mxgraph.flowchart.terminator;whiteSpace=wrap;fontSize=20;" vertex="1" parent="WIyWlLk6GJQsqaUBKTNV-1">
          <mxGeometry x="-558.5" y="1489" width="172" height="100" as="geometry" />
        </mxCell>
        <mxCell id="Jgumxjj7cZuFLw9JBGDY-54" value="" style="edgeStyle=orthogonalEdgeStyle;rounded=0;orthogonalLoop=1;jettySize=auto;html=1;fontSize=20;" edge="1" parent="WIyWlLk6GJQsqaUBKTNV-1" source="Jgumxjj7cZuFLw9JBGDY-48" target="Jgumxjj7cZuFLw9JBGDY-50">
          <mxGeometry relative="1" as="geometry" />
        </mxCell>
        <mxCell id="Jgumxjj7cZuFLw9JBGDY-48" value="void customSort(vector&amp;lt;int&amp;gt;&amp;amp; arr, int n)" style="strokeWidth=2;html=1;shape=mxgraph.flowchart.start_1;whiteSpace=wrap;fontSize=20;" vertex="1" parent="WIyWlLk6GJQsqaUBKTNV-1">
          <mxGeometry x="-53.25" y="10" width="364" height="100" as="geometry" />
        </mxCell>
        <mxCell id="Jgumxjj7cZuFLw9JBGDY-59" value="" style="edgeStyle=orthogonalEdgeStyle;rounded=0;orthogonalLoop=1;jettySize=auto;html=1;fontSize=20;" edge="1" parent="WIyWlLk6GJQsqaUBKTNV-1" source="Jgumxjj7cZuFLw9JBGDY-50" target="Jgumxjj7cZuFLw9JBGDY-57">
          <mxGeometry relative="1" as="geometry" />
        </mxCell>
        <mxCell id="Jgumxjj7cZuFLw9JBGDY-50" value="int i = 0;&amp;nbsp;i &amp;lt; n - 1" style="strokeWidth=2;html=1;shape=mxgraph.flowchart.loop_limit;whiteSpace=wrap;fontSize=20;" vertex="1" parent="WIyWlLk6GJQsqaUBKTNV-1">
          <mxGeometry x="50.75" y="150" width="154" height="90" as="geometry" />
        </mxCell>
        <mxCell id="Jgumxjj7cZuFLw9JBGDY-65" value="" style="edgeStyle=orthogonalEdgeStyle;rounded=0;orthogonalLoop=1;jettySize=auto;html=1;fontSize=20;" edge="1" parent="WIyWlLk6GJQsqaUBKTNV-1" source="Jgumxjj7cZuFLw9JBGDY-57" target="Jgumxjj7cZuFLw9JBGDY-64">
          <mxGeometry relative="1" as="geometry" />
        </mxCell>
        <mxCell id="Jgumxjj7cZuFLw9JBGDY-57" value="int j = 0;&amp;nbsp;j &amp;lt; n - i - 1" style="strokeWidth=2;html=1;shape=mxgraph.flowchart.loop_limit;whiteSpace=wrap;fontSize=20;" vertex="1" parent="WIyWlLk6GJQsqaUBKTNV-1">
          <mxGeometry x="51.25" y="280" width="154" height="90" as="geometry" />
        </mxCell>
        <mxCell id="Jgumxjj7cZuFLw9JBGDY-63" value="" style="edgeStyle=orthogonalEdgeStyle;rounded=0;orthogonalLoop=1;jettySize=auto;html=1;fontSize=20;" edge="1" parent="WIyWlLk6GJQsqaUBKTNV-1" source="Jgumxjj7cZuFLw9JBGDY-61" target="Jgumxjj7cZuFLw9JBGDY-62">
          <mxGeometry relative="1" as="geometry" />
        </mxCell>
        <mxCell id="Jgumxjj7cZuFLw9JBGDY-61" value="++j;" style="strokeWidth=2;html=1;shape=mxgraph.flowchart.loop_limit;whiteSpace=wrap;direction=west;fontSize=20;" vertex="1" parent="WIyWlLk6GJQsqaUBKTNV-1">
          <mxGeometry x="50" y="679" width="154" height="90" as="geometry" />
        </mxCell>
        <mxCell id="Jgumxjj7cZuFLw9JBGDY-67" value="" style="edgeStyle=orthogonalEdgeStyle;rounded=0;orthogonalLoop=1;jettySize=auto;html=1;fontSize=20;" edge="1" parent="WIyWlLk6GJQsqaUBKTNV-1" source="Jgumxjj7cZuFLw9JBGDY-62" target="Jgumxjj7cZuFLw9JBGDY-66">
          <mxGeometry relative="1" as="geometry" />
        </mxCell>
        <mxCell id="Jgumxjj7cZuFLw9JBGDY-62" value="++i;" style="strokeWidth=2;html=1;shape=mxgraph.flowchart.loop_limit;whiteSpace=wrap;direction=west;fontSize=20;" vertex="1" parent="WIyWlLk6GJQsqaUBKTNV-1">
          <mxGeometry x="50.5" y="809" width="154" height="90" as="geometry" />
        </mxCell>
        <mxCell id="Jgumxjj7cZuFLw9JBGDY-69" value="True" style="edgeStyle=orthogonalEdgeStyle;rounded=0;orthogonalLoop=1;jettySize=auto;html=1;exitX=1;exitY=0.5;exitDx=0;exitDy=0;exitPerimeter=0;entryX=0.5;entryY=0;entryDx=0;entryDy=0;fontSize=20;" edge="1" parent="WIyWlLk6GJQsqaUBKTNV-1" source="Jgumxjj7cZuFLw9JBGDY-64" target="Jgumxjj7cZuFLw9JBGDY-68">
          <mxGeometry x="-0.5371" relative="1" as="geometry">
            <Array as="points">
              <mxPoint x="320" y="460" />
              <mxPoint x="320" y="520" />
              <mxPoint x="128" y="520" />
              <mxPoint x="128" y="540" />
            </Array>
            <mxPoint as="offset" />
          </mxGeometry>
        </mxCell>
        <mxCell id="Jgumxjj7cZuFLw9JBGDY-64" value="arr[j] &amp;gt; arr[j + 1]" style="strokeWidth=2;html=1;shape=mxgraph.flowchart.decision;whiteSpace=wrap;fontSize=20;" vertex="1" parent="WIyWlLk6GJQsqaUBKTNV-1">
          <mxGeometry x="30" y="410" width="200" height="100" as="geometry" />
        </mxCell>
        <mxCell id="Jgumxjj7cZuFLw9JBGDY-66" value="End" style="strokeWidth=2;html=1;shape=mxgraph.flowchart.terminator;whiteSpace=wrap;fontSize=20;" vertex="1" parent="WIyWlLk6GJQsqaUBKTNV-1">
          <mxGeometry x="55.5" y="940" width="143" height="70" as="geometry" />
        </mxCell>
        <mxCell id="Jgumxjj7cZuFLw9JBGDY-70" value="" style="edgeStyle=orthogonalEdgeStyle;rounded=0;orthogonalLoop=1;jettySize=auto;html=1;fontSize=20;" edge="1" parent="WIyWlLk6GJQsqaUBKTNV-1" source="Jgumxjj7cZuFLw9JBGDY-68" target="Jgumxjj7cZuFLw9JBGDY-61">
          <mxGeometry relative="1" as="geometry" />
        </mxCell>
        <mxCell id="Jgumxjj7cZuFLw9JBGDY-68" value="arr[j+1], arr[j] = arr[j], arr[j + 1]" style="rounded=1;whiteSpace=wrap;html=1;absoluteArcSize=1;arcSize=14;strokeWidth=2;fontSize=20;" vertex="1" parent="WIyWlLk6GJQsqaUBKTNV-1">
          <mxGeometry x="-5.25" y="540" width="268" height="100" as="geometry" />
        </mxCell>
        <mxCell id="Jgumxjj7cZuFLw9JBGDY-71" value="False" style="edgeStyle=orthogonalEdgeStyle;rounded=0;orthogonalLoop=1;jettySize=auto;html=1;exitX=0;exitY=0.5;exitDx=0;exitDy=0;exitPerimeter=0;entryX=0.5;entryY=1;entryDx=0;entryDy=0;entryPerimeter=0;fontSize=20;" edge="1" parent="WIyWlLk6GJQsqaUBKTNV-1" source="Jgumxjj7cZuFLw9JBGDY-64" target="Jgumxjj7cZuFLw9JBGDY-61">
          <mxGeometry x="-0.7766" relative="1" as="geometry">
            <Array as="points">
              <mxPoint x="-20" y="460" />
              <mxPoint x="-20" y="660" />
              <mxPoint x="127" y="660" />
            </Array>
            <mxPoint as="offset" />
          </mxGeometry>
        </mxCell>
      </root>
    </mxGraphModel>
  </diagram>
</mxfile>
